<svg width="24" height="24" viewBox="0 0 24 24" xmlns="http://www.w3.org/2000/svg">
    <path d="M12 5c-.687 0-1.173.461-1.413 1.037H6V19h12V6.037h-4.587C13.173 5.461 12.687 5 12 5zm0 1.333c.306 0 .557.225.557.5v.5h1.672v1H9.77v-1h1.672v-.5c0-.275.25-.5.557-.5zm-4.971 1h1.657V9.43h6.628V7.333h1.657v10.362H7.03V7.333zM8.057 11v1h1.029v-1H8.057zm2.4 0v1h5.486v-1h-5.486zm-2.4 2v1h1.029v-1H8.057zm2.4 0v1h5.486v-1h-5.486zm-2.4 2v1h1.029v-1H8.057zm2.4 0v1h5.486v-1h-5.486z" fill="#000" fill-rule="nonzero" fill-opacity=".1"/>
</svg>
