<svg width="24" height="24" viewBox="0 0 24 24" xmlns="http://www.w3.org/2000/svg">
    <g fill="none" fill-rule="evenodd">
        <path d="M0 0h24v24H0z"/>
        <g fill="#000" fill-opacity=".1" fill-rule="nonzero">
            <path d="M8.673 11H5.34c-.184 0-.334.138-.334.308v7.384c0 .17.15.308.334.308h3.333c.184 0 .333-.138.333-.308v-7.384c0-.17-.148-.308-.333-.308zM13.673 5H10.34c-.184 0-.334.13-.334.292v13.416c0 .161.15.292.334.292h3.333c.184 0 .333-.13.333-.292V5.292c0-.161-.149-.292-.333-.292zM18.673 8H15.34c-.184 0-.334.13-.334.29v10.42c0 .16.15.29.334.29h3.333c.184 0 .333-.13.333-.29V8.29c0-.16-.149-.29-.333-.29z"/>
        </g>
    </g>
</svg>
