<svg width="20" height="20" viewBox="0 0 20 20" xmlns="http://www.w3.org/2000/svg">
    <g fill="none" fill-rule="evenodd">
        <circle fill="#AD182D" cx="10" cy="10" r="10"/>
        <path d="M10 7.46a4.806 4.806 0 0 1 4.334 2.675A4.806 4.806 0 0 1 10 12.811a4.806 4.806 0 0 1-4.334-2.676A4.806 4.806 0 0 1 10 7.46zm0-.974a5.81 5.81 0 0 0-5.405 3.65A5.81 5.81 0 0 0 10 13.783a5.81 5.81 0 0 0 5.405-3.649A5.81 5.81 0 0 0 10 6.486zm0 2.433c.678 0 1.229.545 1.229 1.216 0 .671-.55 1.216-1.229 1.216a1.223 1.223 0 0 1-1.229-1.216c0-.671.55-1.216 1.229-1.216zm0-.973c-1.219 0-2.211.983-2.211 2.19 0 1.206.992 2.188 2.211 2.188 1.219 0 2.211-.982 2.211-2.189 0-1.206-.992-2.19-2.211-2.19z" fill="#FFF" fill-rule="nonzero"/>
    </g>
</svg>
