<svg width="52" height="52" viewBox="0 0 52 52" xmlns="http://www.w3.org/2000/svg">
    <g fill="none" fill-rule="evenodd">
        <circle cx="26" cy="26" r="26" fill="#AD182D"/>
        <path d="M38.378 35.502H15.086V14.326a.272.272 0 0 0-.27-.272h-1.897a.272.272 0 0 0-.27.272v23.348c0 .15.122.272.27.272h25.459c.149 0 .27-.122.27-.272v-1.9a.272.272 0 0 0-.27-.272zM17.524 33.33h18.145c.15 0 .271-.122.271-.271V18.262a.272.272 0 0 0-.463-.193l-7.12 7.137-4.245-4.208a.271.271 0 0 0-.383 0l-6.398 6.434a.267.267 0 0 0-.078.19v5.437c0 .15.122.271.27.271z" fill="#FFF" fill-rule="nonzero"/>
    </g>
</svg>
