<svg width="24" height="24" viewBox="0 0 24 24" xmlns="http://www.w3.org/2000/svg">
    <path d="M10.21 4.527v.651h.572c.768 0 1.129.933.555 1.434l-.844.735 1.386 2.49a2.096 2.096 0 0 0 2.007 1.06l.164-.02 5.475-.887c.329-.054.556.315.354.576-.486.63-.714 1.407-.868 2.183a6.22 6.22 0 0 1-.464 1.418.404.404 0 0 0-.092.076c-.877.979-2.19 1.603-3.662 1.603-2.661 0-4.791-2.036-4.791-4.514a.414.414 0 0 0-.418-.41.414.414 0 0 0-.417.41c0 2.961 2.534 5.334 5.626 5.334a5.876 5.876 0 0 0 2.194-.42 6.601 6.601 0 0 1-3.645 1.61l-.001.861h1.044v.821h-3.966v-.82l2.087-.001v-.822l-.179-.002a6.584 6.584 0 0 1-5.058-2.657l-.15-.213c-.786-1.166-.68-2.65-.313-4.002l.318-1.166c.088-.322.126-.654.115-.985H5.792c-.744 0-1.117-.883-.59-1.4l3.583-3.523c.526-.517 1.426-.15 1.426.58zM6.987 7.58a1.56 1.56 0 0 1-.026-.678l-1.168 1.15L7.11 8.05zm1.346-1.17a.414.414 0 0 0-.417.41c0 .227.187.41.417.41.23 0 .418-.183.418-.41a.414.414 0 0 0-.418-.41zm1.044-1.882L8.268 5.614a1.63 1.63 0 0 1 1.706.802l.108.193.7-.61h-.571a.828.828 0 0 1-.835-.821v-.65z" fill="#000" fill-rule="evenodd" fill-opacity=".1"/>
</svg>
