<svg width="24" height="24" viewBox="0 0 24 24" xmlns="http://www.w3.org/2000/svg">
    <path d="M18.1 7.427V5.185a.56.56 0 0 0-.56-.56H5.71a.56.56 0 0 0-.56.56v2.242a.56.56 0 0 0-.525.558v2.305a3.098 3.098 0 0 0 .525 1.737v6.038c0 .308.25.56.56.56h4.795v-3.08h2.24v3.08h4.795c.31 0 .56-.25.56-.56v-6.038a3.128 3.128 0 0 0 .525-1.738V7.986a.56.56 0 0 0-.525-.558zm-1.26 9.94h-2.975v-2.382a.56.56 0 0 0-.56-.56h-3.36a.56.56 0 0 0-.56.56v2.382H6.41v-4.239a3.154 3.154 0 0 0 1.39.317 3.16 3.16 0 0 0 1.909-.634.011.011 0 0 1 .01 0 3.154 3.154 0 0 0 1.91.633 3.16 3.16 0 0 0 1.909-.633.011.011 0 0 1 .01 0 3.154 3.154 0 0 0 1.91.633 3.16 3.16 0 0 0 1.389-.316v4.239h-.007zm0-9.942H6.41v-1.54h10.43v1.54z" fill="#D0122D" fill-rule="nonzero"/>
</svg>
