<svg width="24" height="24" viewBox="0 0 24 24" xmlns="http://www.w3.org/2000/svg">
    <g fill="none" fill-rule="evenodd">
        <path d="M4 4h16v16H4z"/>
        <path d="M17.018 6.2h-3.2a1.916 1.916 0 0 0-3.631 0H7.11a.778.778 0 0 0-.889.751v11.387a.756.756 0 0 0 .76.75h10.036a.756.756 0 0 0 .76-.75V6.95a.756.756 0 0 0-.76-.751zm-8 1.333c0-.245.199-.444.444-.444h1.53v-.28a1.029 1.029 0 0 1 2.057 0v.302h1.529c.245 0 .444.2.444.445v.8H9l.018-.823zm6.453 4.103-4.053 4.053-2.33-2.329a.629.629 0 0 1 .89-.889l1.449 1.449 3.173-3.173a.629.629 0 0 1 .889.889h-.018z" fill="#D0122D" fill-rule="nonzero"/>
    </g>
</svg>
